<svg width="60" height="60" viewBox="0 0 60 60" fill="none" xmlns="http://www.w3.org/2000/svg">
<rect width="60" height="60" rx="30" fill="white"/>
<path d="M27.7954 37.5003C28.3831 38.019 29.1549 38.3337 30.0003 38.3337C30.8457 38.3337 31.6175 38.019 32.2052 37.5003M35.0003 26.667C35.0003 25.3409 34.4735 24.0691 33.5358 23.1315C32.5982 22.1938 31.3264 21.667 30.0003 21.667C28.6742 21.667 27.4024 22.1938 26.4648 23.1315C25.5271 24.0691 25.0003 25.3409 25.0003 26.667C25.0003 29.2421 24.3507 31.0053 23.625 32.1715C23.0129 33.1552 22.7068 33.6471 22.7181 33.7843C22.7305 33.9362 22.7627 33.9942 22.8851 34.085C22.9957 34.167 23.4941 34.167 24.491 34.167H35.5096C36.5065 34.167 37.0049 34.167 37.1155 34.085C37.2379 33.9942 37.2701 33.9362 37.2825 33.7843C37.2938 33.6471 36.9877 33.1552 36.3756 32.1715C35.6499 31.0053 35.0003 29.2421 35.0003 26.667Z" stroke="#0A1126" stroke-width="1.5" stroke-linecap="round" stroke-linejoin="round"/>
</svg>
