<svg width="40" height="40" viewBox="0 0 40 40" fill="none" xmlns="http://www.w3.org/2000/svg">
<rect width="40" height="40" rx="10" transform="matrix(-1 0 0 1 40 0)" fill="#DCFFE4" fill-opacity="0.4"/>
<rect x="-0.5" y="0.5" width="39" height="39" rx="9.5" transform="matrix(-1 0 0 1 39 0)" stroke="#38FD07" stroke-opacity="0.05"/>
<path d="M23.75 18.5V17C23.75 14.9289 22.0711 13.25 20 13.25C17.9289 13.25 16.25 14.9289 16.25 17V18.5M20 21.875V23.375M17.6 26.75H22.4C23.6601 26.75 24.2902 26.75 24.7715 26.5048C25.1948 26.289 25.539 25.9448 25.7548 25.5215C26 25.0402 26 24.4101 26 23.15V22.1C26 20.8399 26 20.2098 25.7548 19.7285C25.539 19.3052 25.1948 18.961 24.7715 18.7452C24.2902 18.5 23.6601 18.5 22.4 18.5H17.6C16.3399 18.5 15.7098 18.5 15.2285 18.7452C14.8052 18.961 14.461 19.3052 14.2452 19.7285C14 20.2098 14 20.8399 14 22.1V23.15C14 24.4101 14 25.0402 14.2452 25.5215C14.461 25.9448 14.8052 26.289 15.2285 26.5048C15.7098 26.75 16.3399 26.75 17.6 26.75Z" stroke="#4ADC26" stroke-width="1.5" stroke-linecap="round" stroke-linejoin="round"/>
</svg>
