<svg width="40" height="40" viewBox="0 0 40 40" fill="none" xmlns="http://www.w3.org/2000/svg">
<rect width="40" height="40" rx="10" transform="matrix(-1 0 0 1 40 0)" fill="#FFE9E9" fill-opacity="0.3"/>
<rect x="-0.5" y="0.5" width="39" height="39" rx="9.5" transform="matrix(-1 0 0 1 39 0)" stroke="#FFE9E9" stroke-opacity="0.4"/>
<path d="M20.0003 17.7502V20.7502M20.0003 23.7502H20.0078M18.9618 13.919L12.7931 24.5739C12.451 25.1649 12.2799 25.4604 12.3052 25.7029C12.3272 25.9145 12.4381 26.1067 12.6101 26.2318C12.8073 26.3752 13.1487 26.3752 13.8316 26.3752H26.169C26.8519 26.3752 27.1933 26.3752 27.3905 26.2318C27.5625 26.1067 27.6734 25.9145 27.6954 25.7029C27.7207 25.4604 27.5496 25.1649 27.2075 24.5739L21.0388 13.919C20.6979 13.3301 20.5274 13.0357 20.305 12.9368C20.111 12.8505 19.8896 12.8505 19.6956 12.9368C19.4732 13.0357 19.3027 13.3301 18.9618 13.919Z" stroke="#FD0707" stroke-width="1.5" stroke-linecap="round" stroke-linejoin="round"/>
</svg>
