<svg width="34" height="34" viewBox="0 0 34 34" fill="none" xmlns="http://www.w3.org/2000/svg">
<rect width="34" height="34" rx="17" fill="#0A1126"/>
<path d="M16.9999 15.6588V17.4477M16.9999 19.2366H17.0044M16.3807 13.3743L12.7023 19.7278C12.4983 20.0802 12.3963 20.2564 12.4114 20.401C12.4245 20.5271 12.4906 20.6418 12.5932 20.7163C12.7108 20.8018 12.9144 20.8018 13.3216 20.8018H20.6783C21.0855 20.8018 21.2891 20.8018 21.4067 20.7163C21.5093 20.6418 21.5754 20.5271 21.5885 20.401C21.6036 20.2564 21.5016 20.0802 21.2976 19.7278L17.6192 13.3743C17.4159 13.0231 17.3143 12.8475 17.1817 12.7886C17.066 12.7371 16.9339 12.7371 16.8182 12.7886C16.6856 12.8475 16.584 13.0231 16.3807 13.3743Z" stroke="white" stroke-width="0.766667" stroke-linecap="round" stroke-linejoin="round"/>
</svg>
