<svg width="48" height="48" viewBox="0 0 48 48" fill="none" xmlns="http://www.w3.org/2000/svg">
<rect x="0.5" y="0.5" width="47" height="47" rx="23.5" fill="white"/>
<rect x="0.5" y="0.5" width="47" height="47" rx="23.5" stroke="#EDEDED"/>
<path d="M20.6667 21.9167H24M20.6667 24.8333H26.5M24 31.5C28.1421 31.5 31.5 28.1421 31.5 24C31.5 19.8579 28.1421 16.5 24 16.5C19.8579 16.5 16.5 19.8579 16.5 24C16.5 24.9976 16.6948 25.9497 17.0484 26.8204C17.1161 26.9871 17.1499 27.0704 17.165 27.1377C17.1798 27.2036 17.1852 27.2524 17.1852 27.3199C17.1852 27.3889 17.1727 27.4641 17.1476 27.6145L16.6534 30.5794C16.6017 30.8898 16.5758 31.0451 16.624 31.1573C16.6661 31.2556 16.7444 31.3339 16.8427 31.376C16.9549 31.4242 17.1102 31.3983 17.4206 31.3466L20.3855 30.8524C20.5359 30.8273 20.6111 30.8148 20.6801 30.8148C20.7476 30.8148 20.7964 30.8202 20.8623 30.835C20.9296 30.8501 21.0129 30.8839 21.1796 30.9516C22.0503 31.3052 23.0024 31.5 24 31.5Z" stroke="#0A1126" stroke-width="1.5" stroke-linecap="round" stroke-linejoin="round"/>
</svg>
