<!-- <svg width="40" height="40" viewBox="0 0 40 40" fill="none" xmlns="http://www.w3.org/2000/svg">
<path d="M23.3327 18.332H13.3327M16.666 24.9987H13.3327M26.666 11.6654H13.3327M33.3327 11.332V28.6654C33.3327 31.4656 33.3327 32.8658 32.7877 33.9353C32.3083 34.8761 31.5434 35.641 30.6026 36.1204C29.5331 36.6654 28.1329 36.6654 25.3327 36.6654H14.666C11.8658 36.6654 10.4656 36.6654 9.39606 36.1204C8.45525 35.641 7.69035 34.8761 7.21098 33.9353C6.66602 32.8658 6.66602 31.4656 6.66602 28.6654V11.332C6.66602 8.53177 6.66602 7.13164 7.21098 6.06208C7.69035 5.12127 8.45525 4.35637 9.39606 3.877C10.4656 3.33203 11.8658 3.33203 14.666 3.33203H25.3327C28.1329 3.33203 29.5331 3.33203 30.6026 3.877C31.5434 4.35637 32.3083 5.12127 32.7877 6.06208C33.3327 7.13164 33.3327 8.53177 33.3327 11.332Z" stroke="#166FBF" stroke-width="2" stroke-linecap="round" stroke-linejoin="round"/>
</svg> -->
<svg width="80" height="80" viewBox="0 0 80 80" fill="none" xmlns="http://www.w3.org/2000/svg">
<rect width="80" height="80" rx="15" fill="#166FBF" fill-opacity="0.03"/>
<rect x="0.5" y="0.5" width="79" height="79" rx="14.5" stroke="#166FBF" stroke-opacity="0.1"/>
<path d="M43.3327 38.332H33.3327M36.666 44.9987H33.3327M46.666 31.6654H33.3327M53.3327 31.332V48.6654C53.3327 51.4656 53.3327 52.8658 52.7877 53.9353C52.3083 54.8761 51.5434 55.641 50.6026 56.1204C49.5331 56.6654 48.1329 56.6654 45.3327 56.6654H34.666C31.8658 56.6654 30.4656 56.6654 29.3961 56.1204C28.4553 55.641 27.6903 54.8761 27.211 53.9353C26.666 52.8658 26.666 51.4656 26.666 48.6654V31.332C26.666 28.5318 26.666 27.1316 27.211 26.0621C27.6903 25.1213 28.4553 24.3564 29.3961 23.877C30.4656 23.332 31.8658 23.332 34.666 23.332H45.3327C48.1329 23.332 49.5331 23.332 50.6026 23.877C51.5434 24.3564 52.3083 25.1213 52.7877 26.0621C53.3327 27.1316 53.3327 28.5318 53.3327 31.332Z" stroke="#166FBF" stroke-width="2" stroke-linecap="round" stroke-linejoin="round"/>
</svg>
