<svg width="18" height="19" viewBox="0 0 18 19" fill="none" xmlns="http://www.w3.org/2000/svg">
<path d="M8.99998 15.5012H15.75M2.25 15.5011H3.50591C3.87279 15.5011 4.05624 15.5011 4.22887 15.4597C4.38192 15.423 4.52824 15.3624 4.66245 15.2801C4.81382 15.1873 4.94354 15.0576 5.20296 14.7982L14.625 5.37615C15.2463 4.75483 15.2463 3.74747 14.625 3.12615C14.0037 2.50483 12.9963 2.50483 12.375 3.12615L2.95295 12.5482C2.69352 12.8076 2.5638 12.9373 2.47104 13.0887C2.3888 13.2229 2.32819 13.3692 2.29145 13.5223C2.25 13.6949 2.25 13.8784 2.25 14.2453V15.5011Z" stroke="#0A1126" stroke-width="1.5" stroke-linecap="round" stroke-linejoin="round"/>
</svg>
