<svg width="54" height="19" viewBox="0 0 54 19" fill="none" xmlns="http://www.w3.org/2000/svg">
<path d="M37.8151 10.0349C37.713 9.87315 37.6619 9.79229 37.6333 9.66756C37.6118 9.57387 37.6118 9.42613 37.6333 9.33244C37.6619 9.20771 37.713 9.12685 37.8151 8.96512C38.6591 7.62863 41.1715 4.25 45.0003 4.25C48.8291 4.25 51.3415 7.62863 52.1855 8.96512C52.2877 9.12685 52.3387 9.20771 52.3673 9.33244C52.3888 9.42613 52.3888 9.57387 52.3673 9.66756C52.3387 9.79229 52.2877 9.87315 52.1855 10.0349C51.3415 11.3714 48.8291 14.75 45.0003 14.75C41.1716 14.75 38.6591 11.3714 37.8151 10.0349Z" stroke="#0A1126" stroke-width="1.5" stroke-linecap="round" stroke-linejoin="round"/>
<path d="M45.0003 11.75C46.2429 11.75 47.2503 10.7426 47.2503 9.5C47.2503 8.25736 46.2429 7.25 45.0003 7.25C43.7577 7.25 42.7503 8.25736 42.7503 9.5C42.7503 10.7426 43.7577 11.75 45.0003 11.75Z" stroke="#0A1126" stroke-width="1.5" stroke-linecap="round" stroke-linejoin="round"/>
</svg>
