<svg width="80" height="80" viewBox="0 0 80 80" fill="none" xmlns="http://www.w3.org/2000/svg">
<rect width="80" height="80" rx="15" fill="#166FBF" fill-opacity="0.03"/>
<rect x="0.5" y="0.5" width="79" height="79" rx="14.5" stroke="#166FBF" stroke-opacity="0.1"/>
<path d="M43.3327 38.332H33.3327M36.666 44.9987H33.3327M46.666 31.6654H33.3327M53.3327 31.332V48.6654C53.3327 51.4656 53.3327 52.8658 52.7877 53.9353C52.3083 54.8761 51.5434 55.641 50.6026 56.1204C49.5331 56.6654 48.1329 56.6654 45.3327 56.6654H34.666C31.8658 56.6654 30.4656 56.6654 29.3961 56.1204C28.4553 55.641 27.6903 54.8761 27.211 53.9353C26.666 52.8658 26.666 51.4656 26.666 48.6654V31.332C26.666 28.5318 26.666 27.1316 27.211 26.0621C27.6903 25.1213 28.4553 24.3564 29.3961 23.877C30.4656 23.332 31.8658 23.332 34.666 23.332H45.3327C48.1329 23.332 49.5331 23.332 50.6026 23.877C51.5434 24.3564 52.3083 25.1213 52.7877 26.0621C53.3327 27.1316 53.3327 28.5318 53.3327 31.332Z" stroke="#166FBF" stroke-width="2" stroke-linecap="round" stroke-linejoin="round"/>
</svg>
