<svg width="48" height="48" viewBox="0 0 48 48" fill="none" xmlns="http://www.w3.org/2000/svg">
<rect x="0.5" y="0.5" width="47" height="47" rx="23.5" fill="white"/>
<rect x="0.5" y="0.5" width="47" height="47" rx="23.5" stroke="#ECECEC"/>
<path d="M32.3337 21.4441C32.3337 20.9393 32.3337 20.6868 32.2338 20.57C32.1472 20.4685 32.0173 20.4147 31.8843 20.4252C31.7311 20.4372 31.5526 20.6157 31.1956 20.9727L28.167 24.0013L31.1956 27.0299C31.5526 27.3869 31.7311 27.5654 31.8843 27.5774C32.0173 27.5879 32.1472 27.5341 32.2338 27.4326C32.3337 27.3158 32.3337 27.0633 32.3337 26.5585V21.4441Z" stroke="#0A1126" stroke-width="1.5" stroke-linecap="round" stroke-linejoin="round"/>
<path d="M15.667 22.168C15.667 20.7678 15.667 20.0678 15.9395 19.533C16.1792 19.0626 16.5616 18.6801 17.032 18.4405C17.5668 18.168 18.2669 18.168 19.667 18.168H24.167C25.5671 18.168 26.2672 18.168 26.802 18.4405C27.2724 18.6801 27.6548 19.0626 27.8945 19.533C28.167 20.0678 28.167 20.7678 28.167 22.168V25.8346C28.167 27.2348 28.167 27.9348 27.8945 28.4696C27.6548 28.94 27.2724 29.3225 26.802 29.5622C26.2672 29.8346 25.5671 29.8346 24.167 29.8346H19.667C18.2669 29.8346 17.5668 29.8346 17.032 29.5622C16.5616 29.3225 16.1792 28.94 15.9395 28.4696C15.667 27.9348 15.667 27.2348 15.667 25.8346V22.168Z" stroke="#0A1126" stroke-width="1.5" stroke-linecap="round" stroke-linejoin="round"/>
</svg>
