<svg width="19" height="19" viewBox="0 0 19 19" fill="none" xmlns="http://www.w3.org/2000/svg">
<path d="M9.49998 15.4992H16.25M2.75 15.4992H4.00591C4.37279 15.4992 4.55624 15.4992 4.72887 15.4577C4.88192 15.421 5.02824 15.3604 5.16245 15.2782C5.31382 15.1854 5.44354 15.0557 5.70296 14.7962L15.125 5.37419C15.7463 4.75287 15.7463 3.74551 15.125 3.12419C14.5037 2.50287 13.4963 2.50287 12.875 3.12419L3.45295 12.5462C3.19352 12.8057 3.0638 12.9354 2.97104 13.0868C2.8888 13.221 2.82819 13.3673 2.79145 13.5203C2.75 13.693 2.75 13.8764 2.75 14.2433V15.4992Z" stroke="#0A1126" stroke-width="1.5" stroke-linecap="round" stroke-linejoin="round"/>
</svg>
