<svg width="100" height="100" viewBox="0 0 100 100" fill="none" xmlns="http://www.w3.org/2000/svg">
<rect width="100" height="100" rx="25" fill="#166FBF" fill-opacity="0.04"/>
<rect x="0.5" y="0.5" width="99" height="99" rx="24.5" stroke="#166FBF" stroke-opacity="0.04"/>
<g clip-path="url(#clip0_2248_3625)">
<path d="M77.6868 34.6927L75.5205 33.8595C75.5086 33.8595 75.4967 33.8476 75.4847 33.8476L72.4972 32.693C72.2018 32.5777 71.8731 32.582 71.5807 32.7049C71.2927 32.8379 71.0668 33.0765 70.9499 33.3714L68.8193 38.8704L76.0442 41.6676L78.6032 35.0498L77.6868 34.6927ZM76.3774 31.6337C76.3778 31.6223 77.4584 32.081 77.4368 32.0384L77.9843 30.622C78.0419 30.4759 78.07 30.3198 78.067 30.1628C78.064 30.0058 78.03 29.851 77.967 29.7072C77.9039 29.5634 77.813 29.4335 77.6996 29.3249C77.5861 29.2164 77.4523 29.1313 77.3058 29.0747C76.7814 28.8988 75.9964 28.4228 75.4372 28.7295C74.7765 28.9474 74.5317 30.2793 74.2588 30.8125C74.2356 30.8381 76.3067 31.5984 76.306 31.6099C76.3313 31.6124 76.3557 31.6205 76.3774 31.6337Z" fill="#166FBF"/>
<path d="M66.2716 65.8553L59.7966 63.3555L59.2012 70.6398L61.8201 71.6516L66.2716 65.8553Z" fill="#166FBF"/>
<path d="M67.2481 42.9545C66.9828 43.6383 60.7731 59.7189 60.2852 60.9869L67.4981 63.7722L68.7597 60.5228C69.9331 57.4879 74.098 46.728 75.1871 43.883L67.9622 41.0978L67.2481 42.9545ZM81.1603 36.3494C80.8659 36.2358 80.5384 36.2436 80.2498 36.3714C79.9612 36.4991 79.7351 36.7362 79.6213 37.0306L74.2977 50.811C74.241 50.9568 74.2137 51.1124 74.2172 51.2688C74.2208 51.4252 74.2551 51.5794 74.3183 51.7225C74.3815 51.8657 74.4723 51.9949 74.5855 52.1029C74.6987 52.2109 74.8321 52.2955 74.9781 52.3519C75.124 52.4083 75.2796 52.4354 75.4361 52.4316C75.5925 52.4277 75.7466 52.3931 75.8896 52.3297C76.0326 52.2662 76.1617 52.1752 76.2695 52.0618C76.3773 51.9484 76.4617 51.8148 76.5178 51.6688L81.8414 37.8884C81.8978 37.7426 81.9249 37.5872 81.9212 37.4309C81.9175 37.2747 81.883 37.1207 81.8197 36.9778C81.7565 36.8349 81.6657 36.7058 81.5525 36.598C81.4394 36.4902 81.3061 36.4057 81.1603 36.3494Z" fill="#166FBF"/>
<path d="M69.2592 65.8304C69.2082 66.0299 63.8611 72.8568 63.5698 73.2814C63.2409 73.6859 62.7784 73.9597 62.2656 74.0535C61.7528 74.1473 61.2234 74.055 60.7726 73.7932L60.5346 74.4003C60.6446 74.5811 60.7048 74.7878 60.709 74.9995C60.7132 75.2111 60.6613 75.4201 60.5585 75.6051C60.4557 75.7901 60.3057 75.9446 60.1238 76.0529C59.9419 76.1611 59.7345 76.2192 59.5229 76.2213H57.8446C57.4013 76.2226 56.9677 76.092 56.5989 75.8461C56.2302 75.6003 55.9428 75.2503 55.7735 74.8406L55.2617 75.2929C55.0105 75.5094 54.7147 75.6679 54.3954 75.7573C54.0761 75.8467 53.741 75.8648 53.4139 75.8103C53.0868 75.7557 52.7757 75.6299 52.5026 75.4418C52.2296 75.2536 52.0012 75.0077 51.8338 74.7215C50.7966 75.9885 49.323 77.4676 47.6797 76.3045C47.0924 76.9043 46.4678 78.0933 45.4779 78.1496C45.2436 78.1462 45.0155 78.0739 44.8219 77.9419C44.6283 77.8099 44.4778 77.6239 44.389 77.4071C44.3003 77.1902 44.2772 76.9521 44.3227 76.7222C44.3681 76.4924 44.4801 76.2809 44.6447 76.1142C45.2402 75.5367 45.7783 74.9029 46.2515 74.2217C42.6688 67.7467 43.7876 66.0327 44.1685 65.4376C44.4339 64.7454 46.6198 63.6382 47.8584 64.7115C48.9422 66.0219 49.6262 67.6163 49.8288 69.3047C50.0314 70.993 49.744 72.704 49.001 74.2336C49.4191 73.842 49.8164 73.4288 50.1912 72.9957C50.4331 72.7304 50.7349 72.5268 51.0714 72.4017C51.4079 72.2767 51.7695 72.234 52.1259 72.2771C52.4823 72.3202 52.8232 72.4479 53.1203 72.6495C53.4173 72.8511 53.6618 73.1209 53.8334 73.4362L54.3572 72.9124C54.6325 72.674 54.9615 72.5061 55.316 72.423C55.6705 72.34 56.0399 72.3443 56.3924 72.4357C56.7449 72.527 57.0699 72.7026 57.3394 72.9474C57.609 73.1922 57.8151 73.4988 57.9399 73.8409L58.1899 73.8408L58.5469 72.9244C58.0327 72.8214 57.5732 72.5355 57.2537 72.1197C56.9342 71.7038 56.7762 71.1862 56.8092 70.6628L57.5471 61.6883L57.559 61.5692C58.6528 58.3236 65.1167 42.0236 66.1764 39.1329L68.6641 32.7055C68.8396 32.1528 69.1487 31.6519 69.5639 31.247C69.9791 30.8422 70.4877 30.546 71.0446 30.3845V23.4335C71.0426 21.8936 70.4299 20.4174 69.3411 19.3285C68.2522 18.2397 66.776 17.6271 65.2361 17.625H23.8866C22.3467 17.6271 20.8705 18.2397 19.7817 19.3286C18.6928 20.4174 18.0802 21.8936 18.0781 23.4335V76.5665C18.0802 78.1064 18.6928 79.5826 19.7817 80.6714C20.8705 81.7603 22.3467 82.3729 23.8866 82.375H65.2361C66.776 82.3729 68.2522 81.7603 69.341 80.6714C70.4298 79.5826 71.0425 78.1064 71.0445 76.5665V61.2122L69.2949 65.747C69.283 65.7709 69.2711 65.8066 69.2592 65.8304ZM45.7516 26.8971C45.7507 27.2125 45.625 27.5147 45.402 27.7377C45.1789 27.9607 44.8767 28.0864 44.5613 28.0873H26.0885C25.7728 28.0873 25.4701 27.9619 25.2469 27.7387C25.0236 27.5155 24.8982 27.2127 24.8982 26.8971C24.8982 26.5814 25.0236 26.2787 25.2469 26.0554C25.4701 25.8322 25.7728 25.7068 26.0885 25.7068H44.5613C44.8767 25.7077 45.1789 25.8334 45.402 26.0565C45.625 26.2795 45.7507 26.5817 45.7516 26.8971ZM24.8983 61.5455C24.8977 61.389 24.9281 61.234 24.9878 61.0894C25.0474 60.9447 25.135 60.8133 25.2457 60.7027C25.3563 60.592 25.4877 60.5044 25.6324 60.4447C25.777 60.3851 25.932 60.3547 26.0885 60.3552H37.3484C37.664 60.3552 37.9668 60.4806 38.19 60.7039C38.4132 60.9271 38.5386 61.2298 38.5386 61.5455C38.5386 61.8612 38.4132 62.1639 38.19 62.3871C37.9668 62.6104 37.664 62.7358 37.3484 62.7358H26.0885C25.9318 62.7373 25.7763 62.7076 25.6312 62.6483C25.4861 62.589 25.3543 62.5014 25.2434 62.3906C25.1326 62.2797 25.045 62.1479 24.9857 62.0028C24.9265 61.8577 24.8967 61.7022 24.8983 61.5455ZM53.5597 55.8085H26.0885C25.7767 55.8026 25.4796 55.6746 25.2612 55.452C25.0427 55.2295 24.9203 54.93 24.9203 54.6182C24.9203 54.3063 25.0427 54.0069 25.2612 53.7843C25.4797 53.5617 25.7768 53.4338 26.0886 53.4279H53.5597C53.8722 53.4327 54.1703 53.5602 54.3896 53.7829C54.609 54.0056 54.7319 54.3056 54.7319 54.6182C54.7319 54.9308 54.609 55.2308 54.3896 55.4535C54.1703 55.6762 53.8722 55.8037 53.5597 55.8085ZM59.0111 48.8812H26.0885C25.7767 48.8753 25.4796 48.7473 25.2612 48.5247C25.0427 48.3022 24.9203 48.0027 24.9203 47.6909C24.9203 47.379 25.0427 47.0796 25.2612 46.857C25.4797 46.6344 25.7768 46.5065 26.0886 46.5006H59.0111C59.3236 46.5054 59.6217 46.6329 59.841 46.8556C60.0604 47.0783 60.1833 47.3783 60.1833 47.6909C60.1833 48.0035 60.0604 48.3035 59.841 48.5262C59.6217 48.7489 59.3236 48.8764 59.0111 48.8812ZM60.0822 41.9539H26.0885C25.7766 41.9482 25.4793 41.8203 25.2608 41.5977C25.0422 41.3751 24.9197 41.0755 24.9197 40.7636C24.9197 40.4516 25.0422 40.1521 25.2608 39.9295C25.4794 39.7069 25.7766 39.579 26.0886 39.5733H60.0822C60.3948 39.5781 60.6929 39.7056 60.9122 39.9283C61.1315 40.151 61.2545 40.451 61.2545 40.7636C61.2545 41.0762 61.1315 41.3762 60.9122 41.5989C60.6929 41.8216 60.3948 41.9491 60.0822 41.9539ZM63.7244 35.0146H26.0885C25.7766 35.0089 25.4795 34.8809 25.261 34.6583C25.0424 34.4357 24.92 34.1363 24.92 33.8243C24.92 33.5124 25.0425 33.213 25.261 32.9904C25.4795 32.7678 25.7767 32.6399 26.0886 32.6341H63.7244C64.0369 32.639 64.3349 32.7665 64.5542 32.9892C64.7734 33.2119 64.8963 33.5119 64.8963 33.8244C64.8963 34.1369 64.7734 34.4368 64.5542 34.6595C64.3349 34.8822 64.0369 35.0098 63.7244 35.0146Z" fill="#166FBF"/>
<path d="M46.1684 66.7351C45.9305 66.9969 46.0614 68.4848 47.4659 71.389C47.6139 70.5729 47.5943 69.7351 47.408 68.9268C47.2218 68.1185 46.873 67.3566 46.3828 66.6875C46.3088 66.6885 46.2358 66.7047 46.1684 66.7351Z" fill="#166FBF"/>
</g>
<defs>
<clipPath id="clip0_2248_3625">
<rect width="74" height="74" fill="white" transform="translate(13 13)"/>
</clipPath>
</defs>
</svg>
