<svg width="14" height="15" viewBox="0 0 14 15" fill="none" xmlns="http://www.w3.org/2000/svg">
<path d="M12.1283 7.85412C12.2707 7.73206 12.3419 7.67103 12.368 7.59841C12.3909 7.53467 12.3909 7.46494 12.368 7.4012C12.3419 7.32857 12.2707 7.26754 12.1283 7.14548L7.18704 2.91012C6.9419 2.70001 6.81934 2.59495 6.71557 2.59238C6.62538 2.59014 6.53924 2.62976 6.48225 2.69969C6.41667 2.78015 6.41667 2.94158 6.41667 3.26444V5.77001C5.17144 5.98785 4.03176 6.61883 3.18483 7.56623C2.26148 8.5991 1.75072 9.93577 1.75 11.3212V11.6782C2.36212 10.9408 3.12638 10.3444 3.99044 9.92992C4.75224 9.56447 5.57574 9.34799 6.41667 9.29094V11.7352C6.41667 12.058 6.41667 12.2195 6.48225 12.2999C6.53924 12.3699 6.62538 12.4095 6.71557 12.4072C6.81934 12.4047 6.9419 12.2996 7.18704 12.0895L12.1283 7.85412Z" stroke="#0A1126" stroke-linecap="round" stroke-linejoin="round"/>
</svg>
