<svg width="21" height="21" viewBox="0 0 21 21" fill="none" xmlns="http://www.w3.org/2000/svg">
<path d="M10.6654 2C6.0737 2 2.33203 5.74167 2.33203 10.3333C2.33203 14.925 6.0737 18.6667 10.6654 18.6667C15.257 18.6667 18.9987 14.925 18.9987 10.3333C18.9987 5.74167 15.257 2 10.6654 2ZM13.4654 12.25C13.707 12.4917 13.707 12.8917 13.4654 13.1333C13.3404 13.2583 13.182 13.3167 13.0237 13.3167C12.8654 13.3167 12.707 13.2583 12.582 13.1333L10.6654 11.2167L8.7487 13.1333C8.6237 13.2583 8.46536 13.3167 8.30703 13.3167C8.1487 13.3167 7.99036 13.2583 7.86536 13.1333C7.6237 12.8917 7.6237 12.4917 7.86536 12.25L9.78203 10.3333L7.86536 8.41667C7.6237 8.175 7.6237 7.775 7.86536 7.53333C8.10703 7.29167 8.50703 7.29167 8.7487 7.53333L10.6654 9.45L12.582 7.53333C12.8237 7.29167 13.2237 7.29167 13.4654 7.53333C13.707 7.775 13.707 8.175 13.4654 8.41667L11.5487 10.3333L13.4654 12.25Z" fill="#596780"/>
</svg>
