<svg width="48" height="48" viewBox="0 0 48 48" fill="none" xmlns="http://www.w3.org/2000/svg">
<rect width="48" height="48" rx="24" fill="#0F68FF"/>
<path d="M22.8751 25.1251L30.7501 17.2501M22.9708 25.3712L24.9419 30.4397C25.1155 30.8862 25.2024 31.1094 25.3275 31.1746C25.4359 31.2311 25.5651 31.2312 25.6736 31.1748C25.7988 31.1098 25.8859 30.8866 26.06 30.4403L31.0028 17.7745C31.16 17.3716 31.2386 17.1702 31.1956 17.0415C31.1583 16.9297 31.0706 16.842 30.9588 16.8046C30.8301 16.7616 30.6286 16.8402 30.2257 16.9975L17.5599 21.9402C17.1136 22.1144 16.8905 22.2015 16.8254 22.3266C16.7691 22.4352 16.7691 22.5643 16.8256 22.6728C16.8908 22.7979 17.1141 22.8847 17.5606 23.0584L22.6291 25.0294C22.7197 25.0647 22.765 25.0823 22.8032 25.1095C22.837 25.1337 22.8666 25.1632 22.8907 25.1971C22.9179 25.2352 22.9356 25.2805 22.9708 25.3712Z" stroke="white" stroke-width="1.5" stroke-linecap="round" stroke-linejoin="round"/>
</svg>
