<svg width="101" height="101" viewBox="0 0 101 101" fill="none" xmlns="http://www.w3.org/2000/svg">
<rect x="0.5" y="0.5" width="100" height="100" rx="15" fill="#166FBF" fill-opacity="0.03"/>
<rect x="1" y="1" width="99" height="99" rx="14.5" stroke="#166FBF" stroke-opacity="0.1"/>
<path d="M50.5029 21.4199C34.4643 21.4199 21.4199 34.4643 21.4199 50.4968C21.4199 66.5356 34.4643 79.5798 50.5029 79.5798C66.5355 79.5798 79.5798 66.5356 79.5798 50.4968C79.5798 34.4643 66.5355 21.4199 50.5029 21.4199ZM50.5029 78.3601C35.1412 78.3601 22.6396 65.8586 22.6396 50.4968C22.6396 35.1351 35.1412 22.6396 50.5029 22.6396C65.8647 22.6396 78.3601 35.1351 78.3601 50.4968C78.3601 65.8586 65.8647 78.3601 50.5029 78.3601Z" fill="#166FBF"/>
<path d="M50.5027 28.0793C38.1353 28.0793 28.0791 38.1356 28.0791 50.4968C28.0791 62.8643 38.1353 72.9204 50.5027 72.9204C62.8641 72.9204 72.9202 62.8642 72.9202 50.4968C72.9202 38.1354 62.8641 28.0793 50.5027 28.0793ZM62.2969 46.5268L48.5635 60.2115C47.0998 61.669 44.7154 61.5592 43.386 60.0104L38.489 54.3084C37.0803 52.6619 37.2632 50.1675 38.8976 48.7467C40.5564 47.3075 43.075 47.4843 44.5081 49.1736L46.2948 51.2774L56.7047 40.9102C58.2476 39.3734 60.754 39.3795 62.2969 40.9224C63.8764 42.5081 63.8276 45.0084 62.2969 46.5268Z" fill="#166FBF"/>
</svg>
