<svg width="21" height="21" viewBox="0 0 21 21" fill="none" xmlns="http://www.w3.org/2000/svg">
<path d="M10.6654 2C6.0737 2 2.33203 5.74167 2.33203 10.3333C2.33203 14.925 6.0737 18.6667 10.6654 18.6667C15.257 18.6667 18.9987 14.925 18.9987 10.3333C18.9987 5.74167 15.257 2 10.6654 2ZM14.6487 8.41667L9.9237 13.1417C9.80703 13.2583 9.6487 13.325 9.48203 13.325C9.31536 13.325 9.15703 13.2583 9.04036 13.1417L6.68203 10.7833C6.44036 10.5417 6.44036 10.1417 6.68203 9.9C6.9237 9.65833 7.3237 9.65833 7.56536 9.9L9.48203 11.8167L13.7654 7.53333C14.007 7.29167 14.407 7.29167 14.6487 7.53333C14.8904 7.775 14.8904 8.16667 14.6487 8.41667Z" fill="#166FBF"/>
</svg>
