<svg width="48" height="48" viewBox="0 0 48 48" fill="none" xmlns="http://www.w3.org/2000/svg">
<rect x="0.5" y="0.5" width="47" height="47" rx="23.5" fill="white"/>
<rect x="0.5" y="0.5" width="47" height="47" rx="23.5" stroke="#ECECEC"/>
<g clip-path="url(#clip0_108_8105)">
<path d="M25.7084 19.0013C26.5223 19.1601 27.2704 19.5582 27.8568 20.1446C28.4432 20.731 28.8412 21.479 29 22.293M25.7084 15.668C27.3994 15.8558 28.9764 16.6131 30.1802 17.8155C31.3841 19.0178 32.1434 20.5938 32.3334 22.2846M22.5225 25.5539C21.5212 24.5525 20.7306 23.4203 20.1506 22.2123C20.1007 22.1084 20.0757 22.0565 20.0566 21.9907C19.9885 21.7571 20.0374 21.4702 20.179 21.2724C20.2189 21.2167 20.2665 21.169 20.3618 21.0738C20.6531 20.7824 20.7988 20.6368 20.8941 20.4903C21.2532 19.9379 21.2532 19.2257 20.8941 18.6733C20.7988 18.5268 20.6531 18.3812 20.3618 18.0898L20.1994 17.9274C19.7565 17.4846 19.5351 17.2631 19.2973 17.1429C18.8243 16.9036 18.2658 16.9036 17.7928 17.1429C17.555 17.2631 17.3336 17.4846 16.8907 17.9274L16.7593 18.0588C16.318 18.5002 16.0973 18.7208 15.9288 19.0209C15.7417 19.3538 15.6073 19.8709 15.6084 20.2527C15.6094 20.5968 15.6762 20.832 15.8097 21.3024C16.5272 23.8302 17.8809 26.2155 19.8709 28.2055C21.8609 30.1955 24.2462 31.5492 26.774 32.2667C27.2444 32.4002 27.4795 32.467 27.8237 32.468C28.2055 32.4691 28.7226 32.3346 29.0555 32.1476C29.3555 31.9791 29.5762 31.7584 30.0176 31.3171L30.1489 31.1857C30.5918 30.7428 30.8132 30.5214 30.9335 30.2836C31.1728 29.8106 31.1728 29.2521 30.9335 28.7791C30.8132 28.5413 30.5918 28.3198 30.1489 27.877L29.9865 27.7146C29.6952 27.4232 29.5495 27.2776 29.4031 27.1823C28.8506 26.8232 28.1385 26.8232 27.5861 27.1823C27.4396 27.2776 27.2939 27.4232 27.0026 27.7146C26.9073 27.8098 26.8597 27.8575 26.804 27.8973C26.6062 28.039 26.3193 28.0879 26.0857 28.0198C26.0199 28.0007 25.968 27.9757 25.8641 27.9258C24.656 27.3458 23.5238 26.5552 22.5225 25.5539Z" stroke="#0A1126" stroke-width="1.5" stroke-linecap="round" stroke-linejoin="round"/>
</g>
<defs>
<clipPath id="clip0_108_8105">
<rect width="20" height="20" fill="white" transform="translate(14 14)"/>
</clipPath>
</defs>
</svg>
