<svg width="48" height="48" viewBox="0 0 48 48" fill="none" xmlns="http://www.w3.org/2000/svg">
<rect x="0.5" y="0.5" width="47" height="47" rx="23.5" fill="white"/>
<rect x="0.5" y="0.5" width="47" height="47" rx="23.5" stroke="#EDEDED"/>
<path d="M24 30.6662H31.5M16.5 30.6662H17.8955C18.3031 30.6662 18.5069 30.6662 18.6987 30.6202C18.8688 30.5793 19.0314 30.512 19.1805 30.4206C19.3487 30.3175 19.4928 30.1734 19.7811 29.8852L30.25 19.4162C30.9404 18.7258 30.9404 17.6066 30.25 16.9162C29.5597 16.2258 28.4404 16.2258 27.75 16.9162L17.2811 27.3852C16.9928 27.6734 16.8487 27.8175 16.7456 27.9857C16.6542 28.1348 16.5869 28.2974 16.5461 28.4675C16.5 28.6593 16.5 28.8631 16.5 29.2708V30.6662Z" stroke="#0A1126" stroke-width="1.5" stroke-linecap="round" stroke-linejoin="round"/>
</svg>
