<svg width="14" height="14" viewBox="0 0 14 14" fill="none" xmlns="http://www.w3.org/2000/svg">
<path d="M8.16732 1.3252V3.73468C8.16732 4.06137 8.16732 4.22472 8.2309 4.3495C8.28682 4.45927 8.37606 4.5485 8.48582 4.60443C8.61061 4.66801 8.77395 4.66801 9.10065 4.66801H11.5101M8.16732 9.91797H4.66732M9.33398 7.58464H4.66732M11.6673 5.82777V10.0346C11.6673 11.0147 11.6673 11.5048 11.4766 11.8791C11.3088 12.2084 11.0411 12.4761 10.7118 12.6439C10.3375 12.8346 9.84741 12.8346 8.86732 12.8346H5.13398C4.15389 12.8346 3.66385 12.8346 3.2895 12.6439C2.96022 12.4761 2.6925 12.2084 2.52472 11.8791C2.33398 11.5048 2.33398 11.0147 2.33398 10.0346V3.96797C2.33398 2.98788 2.33398 2.49783 2.52472 2.12349C2.6925 1.7942 2.96022 1.52649 3.2895 1.35871C3.66385 1.16797 4.15389 1.16797 5.13398 1.16797H7.00752C7.43555 1.16797 7.64957 1.16797 7.85097 1.21632C8.02954 1.25919 8.20024 1.3299 8.35682 1.42585C8.53342 1.53407 8.68475 1.6854 8.98742 1.98807L10.8472 3.84787C11.1499 4.15053 11.3012 4.30187 11.4094 4.47847C11.5054 4.63505 11.5761 4.80575 11.619 4.98431C11.6673 5.18572 11.6673 5.39973 11.6673 5.82777Z" stroke="#0A1126" stroke-linecap="round" stroke-linejoin="round"/>
</svg>
