<svg width="34" height="35" viewBox="0 0 34 35" fill="none" xmlns="http://www.w3.org/2000/svg">
<rect y="0.5" width="34" height="34" rx="17" fill="#0A1126"/>
<path d="M15.2501 19.5417H14.3751C13.561 19.5417 13.154 19.5417 12.8227 19.6421C12.077 19.8684 11.4934 20.4519 11.2672 21.1977C11.1667 21.5289 11.1667 21.9359 11.1667 22.75M18.4584 14.875C18.4584 16.3247 17.2832 17.5 15.8334 17.5C14.3837 17.5 13.2084 16.3247 13.2084 14.875C13.2084 13.4253 14.3837 12.25 15.8334 12.25C17.2832 12.25 18.4584 13.4253 18.4584 14.875ZM16.4167 22.75L18.2259 22.2331C18.3125 22.2084 18.3558 22.196 18.3962 22.1774C18.4321 22.161 18.4662 22.1409 18.498 22.1175C18.5339 22.0912 18.5657 22.0594 18.6294 21.9957L22.3959 18.2292C22.7987 17.8265 22.7987 17.1735 22.3959 16.7708C21.9932 16.3681 21.3403 16.3681 20.9376 16.7708L17.1711 20.5373C17.1074 20.601 17.0755 20.6329 17.0492 20.6687C17.0259 20.7005 17.0058 20.7347 16.9893 20.7705C16.9708 20.8109 16.9584 20.8542 16.9336 20.9409L16.4167 22.75Z" stroke="white" stroke-linecap="round" stroke-linejoin="round"/>
</svg>
