<svg width="46" height="47" viewBox="0 0 46 47" fill="none" xmlns="http://www.w3.org/2000/svg">
<rect y="0.5" width="46" height="46" rx="23" fill="#0A1126"/>
<path d="M21.8751 24.6251L29.7501 16.7501M21.9708 24.8712L23.9419 29.9397C24.1155 30.3862 24.2024 30.6094 24.3275 30.6746C24.4359 30.7311 24.5651 30.7312 24.6736 30.6748C24.7988 30.6098 24.8859 30.3866 25.06 29.9403L30.0028 17.2745C30.16 16.8716 30.2386 16.6702 30.1956 16.5415C30.1583 16.4297 30.0706 16.342 29.9588 16.3046C29.8301 16.2616 29.6286 16.3402 29.2257 16.4975L16.5599 21.4402C16.1136 21.6144 15.8905 21.7015 15.8254 21.8266C15.7691 21.9352 15.7691 22.0643 15.8256 22.1728C15.8908 22.2979 16.1141 22.3847 16.5606 22.5584L21.6291 24.5294C21.7197 24.5647 21.765 24.5823 21.8032 24.6095C21.837 24.6337 21.8666 24.6632 21.8907 24.6971C21.9179 24.7352 21.9356 24.7805 21.9708 24.8712Z" stroke="white" stroke-width="1.5" stroke-linecap="round" stroke-linejoin="round"/>
</svg>
