<svg width="66" height="60" viewBox="0 0 66 60" fill="none" xmlns="http://www.w3.org/2000/svg">
<path d="M49.5011 2.0332C50.0534 2.0332 50.5011 1.58549 50.5011 1.0332C50.5011 0.480918 50.0534 0.0332032 49.5011 0.0332032V2.0332ZM8.99805 2.0332H49.5011V0.0332032H8.99805V2.0332Z" fill="#CBCBCB"/>
<line x1="9" y1="55.5234" x2="66" y2="55.5234" stroke="#CBCBCB" stroke-width="2"/>
<line x1="10" y1="55.5234" x2="10" y2="1.52344" stroke="#CBCBCB" stroke-width="2"/>
<path d="M66 16.5241C66 15.9719 65.5523 15.5241 65 15.5241C64.4477 15.5241 64 15.9719 64 16.5241H66ZM66 55.5273V16.5241H64V55.5273H66Z" fill="#CBCBCB"/>
<path d="M49.4609 1L64.9923 16.5193" stroke="#CBCBCB" stroke-width="2"/>
<rect y="47.5234" width="36" height="12" rx="2" fill="#FFB300"/>
<path d="M11.544 50.2507H13.0639V55.3217C13.0639 55.7905 12.9586 56.1977 12.7479 56.5433C12.5395 56.889 12.2495 57.1553 11.8778 57.3423C11.5062 57.5294 11.0741 57.6229 10.5817 57.6229C10.1437 57.6229 9.74598 57.5459 9.38849 57.392C9.03338 57.2358 8.75166 56.9991 8.54332 56.6818C8.33499 56.3622 8.23201 55.9609 8.23438 55.478H9.76491C9.76965 55.6697 9.80871 55.8343 9.8821 55.9716C9.95786 56.1065 10.0608 56.2107 10.1911 56.2841C10.3236 56.3551 10.4799 56.3906 10.6598 56.3906C10.8492 56.3906 11.009 56.3504 11.1392 56.2699C11.2718 56.187 11.3724 56.0663 11.4411 55.9077C11.5097 55.7491 11.544 55.5537 11.544 55.3217V50.2507ZM14.3352 57.5234V50.2507H17.2045C17.7562 50.2507 18.2261 50.3561 18.6143 50.5668C19.0026 50.7751 19.2985 51.0651 19.5021 51.4368C19.7081 51.8061 19.8111 52.2322 19.8111 52.7152C19.8111 53.1982 19.7069 53.6243 19.4986 53.9936C19.2902 54.3629 18.9884 54.6506 18.593 54.8565C18.2 55.0625 17.7242 55.1655 17.1655 55.1655H15.3366V53.9332H16.9169C17.2128 53.9332 17.4567 53.8823 17.6484 53.7805C17.8426 53.6764 17.987 53.5331 18.0817 53.3509C18.1787 53.1662 18.2273 52.9543 18.2273 52.7152C18.2273 52.4737 18.1787 52.263 18.0817 52.0831C17.987 51.9008 17.8426 51.7599 17.6484 51.6605C17.4543 51.5587 17.2081 51.5078 16.9098 51.5078H15.8729V57.5234H14.3352ZM25.6323 52.6016C25.5826 52.4287 25.5127 52.276 25.4228 52.1435C25.3328 52.0085 25.2227 51.8949 25.0925 51.8026C24.9647 51.7079 24.8179 51.6357 24.6522 51.5859C24.4888 51.5362 24.3077 51.5114 24.1088 51.5114C23.7372 51.5114 23.4105 51.6037 23.1287 51.7884C22.8494 51.973 22.6316 52.2417 22.4753 52.5945C22.3191 52.9448 22.2409 53.3733 22.2409 53.88C22.2409 54.3866 22.3179 54.8175 22.4718 55.1726C22.6257 55.5277 22.8435 55.7988 23.1252 55.9858C23.4069 56.1705 23.7395 56.2628 24.123 56.2628C24.4711 56.2628 24.7682 56.2012 25.0144 56.0781C25.263 55.9527 25.4524 55.7763 25.5826 55.549C25.7151 55.3217 25.7814 55.053 25.7814 54.7429L26.0939 54.7891H24.2189V53.6314H27.2623V54.5476C27.2623 55.1868 27.1273 55.736 26.8574 56.1953C26.5875 56.6522 26.2158 57.005 25.7424 57.2536C25.2689 57.4998 24.7267 57.6229 24.1159 57.6229C23.4341 57.6229 22.8352 57.4725 22.3191 57.1719C21.803 56.8688 21.4005 56.4392 21.1117 55.8828C20.8252 55.3241 20.682 54.6612 20.682 53.8942C20.682 53.3047 20.7672 52.7791 20.9377 52.3175C21.1105 51.8535 21.352 51.4605 21.6621 51.1385C21.9722 50.8165 22.3333 50.5715 22.7452 50.4034C23.1571 50.2353 23.6034 50.1513 24.084 50.1513C24.4959 50.1513 24.8794 50.2116 25.2346 50.3324C25.5897 50.4508 25.9045 50.6188 26.1792 50.8366C26.4561 51.0545 26.6822 51.3137 26.8574 51.6143C27.0326 51.9126 27.1451 52.2417 27.1948 52.6016H25.6323Z" fill="white"/>
</svg>
