<svg width="66" height="60" viewBox="0 0 66 60" fill="none" xmlns="http://www.w3.org/2000/svg">
<path d="M49.5011 2.50977C50.0534 2.50977 50.5011 2.06205 50.5011 1.50977C50.5011 0.957481 50.0534 0.509766 49.5011 0.509766V2.50977ZM8.99805 2.50977H49.5011V0.509766H8.99805V2.50977Z" fill="#CBCBCB"/>
<line x1="9" y1="56" x2="66" y2="56" stroke="#CBCBCB" stroke-width="2"/>
<line x1="10" y1="56" x2="10" y2="2" stroke="#CBCBCB" stroke-width="2"/>
<path d="M66 17.0007C66 16.4484 65.5523 16.0007 65 16.0007C64.4477 16.0007 64 16.4484 64 17.0007H66ZM66 56.0039V17.0007H64V56.0039H66Z" fill="#CBCBCB"/>
<path d="M49.4609 1.47656L64.9923 16.9958" stroke="#CBCBCB" stroke-width="2"/>
<rect y="48" width="36" height="12" rx="2" fill="#E53935"/>
<path d="M8.6321 58V50.7273H11.5014C12.053 50.7273 12.523 50.8326 12.9112 51.0433C13.2995 51.2517 13.5954 51.5417 13.799 51.9134C14.005 52.2827 14.108 52.7088 14.108 53.1918C14.108 53.6747 14.0038 54.1009 13.7955 54.4702C13.5871 54.8395 13.2853 55.1271 12.8899 55.3331C12.4969 55.5391 12.0211 55.642 11.4624 55.642H9.63352V54.4098H11.2138C11.5097 54.4098 11.7536 54.3589 11.9453 54.2571C12.1394 54.1529 12.2839 54.0097 12.3786 53.8274C12.4756 53.6428 12.5241 53.4309 12.5241 53.1918C12.5241 52.9503 12.4756 52.7396 12.3786 52.5597C12.2839 52.3774 12.1394 52.2365 11.9453 52.1371C11.7512 52.0353 11.505 51.9844 11.2067 51.9844H10.1697V58H8.6321ZM17.6848 58H15.1067V50.7273H17.7061C18.4377 50.7273 19.0674 50.8729 19.5953 51.1641C20.1233 51.4529 20.5293 51.8684 20.8134 52.4105C21.0998 52.9527 21.2431 53.6013 21.2431 54.3565C21.2431 55.1141 21.0998 55.7652 20.8134 56.3097C20.5293 56.8542 20.1209 57.272 19.5882 57.5632C19.0579 57.8544 18.4235 58 17.6848 58ZM16.6444 56.6825H17.6209C18.0755 56.6825 18.4578 56.602 18.7679 56.4411C19.0804 56.2777 19.3148 56.0256 19.4711 55.6847C19.6297 55.3414 19.709 54.8987 19.709 54.3565C19.709 53.8191 19.6297 53.38 19.4711 53.0391C19.3148 52.6982 19.0816 52.4472 18.7715 52.2862C18.4614 52.1252 18.079 52.0447 17.6245 52.0447H16.6444V56.6825ZM22.3821 58V50.7273H27.1974V51.995H23.9197V53.728H26.8778V54.9957H23.9197V58H22.3821Z" fill="white"/>
</svg>
