<svg width="66" height="60" viewBox="0 0 66 60" fill="none" xmlns="http://www.w3.org/2000/svg">
<path d="M49.5011 2.0332C50.0534 2.0332 50.5011 1.58549 50.5011 1.0332C50.5011 0.480918 50.0534 0.0332032 49.5011 0.0332032V2.0332ZM8.99805 2.0332H49.5011V0.0332032H8.99805V2.0332Z" fill="#CBCBCB"/>
<line x1="9" y1="55.5234" x2="66" y2="55.5234" stroke="#CBCBCB" stroke-width="2"/>
<line x1="10" y1="55.5234" x2="10" y2="1.52344" stroke="#CBCBCB" stroke-width="2"/>
<path d="M66 16.5241C66 15.9719 65.5523 15.5241 65 15.5241C64.4477 15.5241 64 15.9719 64 16.5241H66ZM66 55.5273V16.5241H64V55.5273H66Z" fill="#CBCBCB"/>
<path d="M49.4609 1L64.9923 16.5193" stroke="#CBCBCB" stroke-width="2"/>
<rect y="47.5234" width="36" height="12" rx="2" fill="#43A047"/>
<path d="M10.0739 50.2507L11.5405 52.7294H11.5973L13.071 50.2507H14.8075L12.5881 53.8871L14.8572 57.5234H13.0888L11.5973 55.0412H11.5405L10.049 57.5234H8.28764L10.5639 53.8871L8.33026 50.2507H10.0739ZM15.7805 57.5234V50.2507H17.3182V56.2557H20.4361V57.5234H15.7805ZM25.3997 52.3423C25.3713 52.0559 25.2493 51.8333 25.0339 51.6747C24.8185 51.5161 24.5261 51.4368 24.1568 51.4368C23.9058 51.4368 23.694 51.4723 23.5211 51.5433C23.3483 51.612 23.2157 51.7079 23.1234 51.831C23.0334 51.9541 22.9885 52.0938 22.9885 52.25C22.9837 52.3802 23.0109 52.4938 23.0701 52.5909C23.1317 52.688 23.2157 52.772 23.3223 52.843C23.4288 52.9117 23.5519 52.9721 23.6916 53.0241C23.8313 53.0739 23.9804 53.1165 24.139 53.152L24.7924 53.3082C25.1097 53.3793 25.4009 53.474 25.666 53.5923C25.9312 53.7107 26.1608 53.8563 26.3549 54.0291C26.5491 54.2019 26.6994 54.4055 26.8059 54.6399C26.9148 54.8743 26.9705 55.143 26.9728 55.446C26.9705 55.8911 26.8568 56.277 26.6319 56.6037C26.4094 56.928 26.0874 57.1802 25.666 57.3601C25.247 57.5376 24.7415 57.6264 24.1497 57.6264C23.5626 57.6264 23.0512 57.5365 22.6156 57.3565C22.1824 57.1766 21.8438 56.9103 21.6 56.5575C21.3585 56.2024 21.2318 55.7633 21.22 55.2401H22.7079C22.7245 55.4839 22.7943 55.6875 22.9174 55.8509C23.0429 56.0118 23.2098 56.1338 23.4181 56.2166C23.6288 56.2971 23.8668 56.3374 24.1319 56.3374C24.3923 56.3374 24.6184 56.2995 24.8102 56.2237C25.0043 56.148 25.1547 56.0426 25.2612 55.9077C25.3677 55.7727 25.421 55.6177 25.421 55.4425C25.421 55.2791 25.3725 55.1418 25.2754 55.0305C25.1807 54.9193 25.041 54.8246 24.8564 54.7464C24.6741 54.6683 24.4503 54.5973 24.1852 54.5334L23.3933 54.3345C22.7801 54.1854 22.296 53.9522 21.9409 53.6349C21.5858 53.3177 21.4094 52.8904 21.4118 52.353C21.4094 51.9126 21.5266 51.5279 21.7633 51.1989C22.0024 50.8698 22.3303 50.6129 22.747 50.4283C23.1636 50.2436 23.6371 50.1513 24.1674 50.1513C24.7072 50.1513 25.1783 50.2436 25.5808 50.4283C25.9856 50.6129 26.3005 50.8698 26.5254 51.1989C26.7503 51.5279 26.8663 51.9091 26.8734 52.3423H25.3997Z" fill="white"/>
</svg>
