<svg width="20" height="20" viewBox="0 0 20 20" fill="none" xmlns="http://www.w3.org/2000/svg">
<g clip-path="url(#clip0_108_5374)">
<path d="M13.3327 6.66647V10.8331C13.3327 11.4962 13.5961 12.1321 14.0649 12.6009C14.5338 13.0697 15.1697 13.3331 15.8327 13.3331C16.4957 13.3331 17.1316 13.0697 17.6005 12.6009C18.0693 12.1321 18.3327 11.4962 18.3327 10.8331V9.99981C18.3326 8.119 17.6962 6.29354 16.5271 4.82025C15.358 3.34696 13.7248 2.3125 11.8932 1.88506C10.0616 1.45762 8.1393 1.66234 6.43881 2.46595C4.73833 3.26955 3.35969 4.62477 2.52707 6.31124C1.69446 7.99772 1.45683 9.91626 1.85283 11.7549C2.24883 13.5936 3.25517 15.2442 4.70822 16.4384C6.16126 17.6326 7.97555 18.3001 9.85608 18.3324C11.7366 18.3648 13.5728 17.76 15.066 16.6165M13.3327 9.99981C13.3327 11.8408 11.8403 13.3331 9.99936 13.3331C8.15841 13.3331 6.66603 11.8408 6.66603 9.99981C6.66603 8.15886 8.15841 6.66647 9.99936 6.66647C11.8403 6.66647 13.3327 8.15886 13.3327 9.99981Z" stroke="#AFAFAF" stroke-width="1.5" stroke-linecap="round" stroke-linejoin="round"/>
</g>
<defs>
<clipPath id="clip0_108_5374">
<rect width="20" height="20" fill="white"/>
</clipPath>
</defs>
</svg>
