<svg width="20" height="18" viewBox="0 0 20 18" fill="none" xmlns="http://www.w3.org/2000/svg">
<path d="M6.24935 8.16667H3.83268C3.36597 8.16667 3.13262 8.16667 2.95436 8.25749C2.79756 8.33739 2.67007 8.46487 2.59018 8.62167C2.49935 8.79993 2.49935 9.03329 2.49935 9.5V16.5M13.7493 8.16667H16.166C16.6327 8.16667 16.8661 8.16667 17.0443 8.25749C17.2011 8.33739 17.3286 8.46487 17.4085 8.62167C17.4993 8.79993 17.4993 9.03329 17.4993 9.5V16.5M13.7493 16.5V4.16667C13.7493 3.23325 13.7493 2.76654 13.5677 2.41002C13.4079 2.09641 13.1529 1.84144 12.8393 1.68166C12.4828 1.5 12.0161 1.5 11.0827 1.5H8.91602C7.98259 1.5 7.51588 1.5 7.15937 1.68166C6.84576 1.84144 6.59079 2.09641 6.43101 2.41002C6.24935 2.76654 6.24935 3.23325 6.24935 4.16667V16.5M18.3327 16.5H1.66602M9.16602 4.83333H10.8327M9.16602 8.16667H10.8327M9.16602 11.5H10.8327" stroke="#0A1126" stroke-width="1.5" stroke-linecap="round" stroke-linejoin="round"/>
</svg>
