<svg width="19" height="18" viewBox="0 0 19 18" fill="none" xmlns="http://www.w3.org/2000/svg">
<path d="M12.5 12V14.1C12.5 14.9401 12.5 15.3601 12.3365 15.681C12.1927 15.9632 11.9632 16.1927 11.681 16.3365C11.3601 16.5 10.9401 16.5 10.1 16.5H4.4C3.55992 16.5 3.13988 16.5 2.81901 16.3365C2.53677 16.1927 2.3073 15.9632 2.16349 15.681C2 15.3601 2 14.9401 2 14.1V8.4C2 7.55992 2 7.13988 2.16349 6.81901C2.3073 6.53677 2.53677 6.3073 2.81901 6.16349C3.13988 6 3.55992 6 4.4 6H6.5M8.9 12H14.6C15.4401 12 15.8601 12 16.181 11.8365C16.4632 11.6927 16.6927 11.4632 16.8365 11.181C17 10.8601 17 10.4401 17 9.6V3.9C17 3.05992 17 2.63988 16.8365 2.31901C16.6927 2.03677 16.4632 1.8073 16.181 1.66349C15.8601 1.5 15.4401 1.5 14.6 1.5H8.9C8.05992 1.5 7.63988 1.5 7.31901 1.66349C7.03677 1.8073 6.8073 2.03677 6.66349 2.31901C6.5 2.63988 6.5 3.05992 6.5 3.9V9.6C6.5 10.4401 6.5 10.8601 6.66349 11.181C6.8073 11.4632 7.03677 11.6927 7.31901 11.8365C7.63988 12 8.05992 12 8.9 12Z" stroke="#166FBF" stroke-width="1.5" stroke-linecap="round" stroke-linejoin="round"/>
</svg>
