<svg width="66" height="60" viewBox="0 0 66 60" fill="none" xmlns="http://www.w3.org/2000/svg">
<path d="M49.5011 2.0332C50.0534 2.0332 50.5011 1.58549 50.5011 1.0332C50.5011 0.480918 50.0534 0.0332032 49.5011 0.0332032V2.0332ZM8.99805 2.0332H49.5011V0.0332032H8.99805V2.0332Z" fill="#CBCBCB"/>
<line x1="9" y1="55.5234" x2="66" y2="55.5234" stroke="#CBCBCB" stroke-width="2"/>
<line x1="10" y1="55.5234" x2="10" y2="1.52344" stroke="#CBCBCB" stroke-width="2"/>
<path d="M66 16.5241C66 15.9719 65.5523 15.5241 65 15.5241C64.4477 15.5241 64 15.9719 64 16.5241H66ZM66 55.5273V16.5241H64V55.5273H66Z" fill="#CBCBCB"/>
<path d="M49.4609 1L64.9923 16.5193" stroke="#CBCBCB" stroke-width="2"/>
<rect y="47.5234" width="39" height="12" rx="2" fill="#1E88E5"/>
<path d="M11.2102 57.5234H8.6321V50.2507H11.2315C11.9631 50.2507 12.5928 50.3963 13.1207 50.6875C13.6487 50.9763 14.0547 51.3918 14.3388 51.9339C14.6252 52.4761 14.7685 53.1248 14.7685 53.88C14.7685 54.6375 14.6252 55.2886 14.3388 55.8331C14.0547 56.3776 13.6463 56.7955 13.1136 57.0866C12.5833 57.3778 11.9489 57.5234 11.2102 57.5234ZM10.1697 56.206H11.1463C11.6009 56.206 11.9832 56.1255 12.2933 55.9645C12.6058 55.8011 12.8402 55.549 12.9964 55.2081C13.1551 54.8648 13.2344 54.4221 13.2344 53.88C13.2344 53.3426 13.1551 52.9034 12.9964 52.5625C12.8402 52.2216 12.607 51.9706 12.2969 51.8097C11.9867 51.6487 11.6044 51.5682 11.1499 51.5682H10.1697V56.206ZM22.5907 53.8871C22.5907 54.6802 22.4404 55.3549 22.1397 55.9112C21.8414 56.4676 21.4342 56.8925 20.9181 57.1861C20.4044 57.4773 19.8268 57.6229 19.1852 57.6229C18.5389 57.6229 17.9589 57.4761 17.4451 57.1825C16.9314 56.889 16.5254 56.464 16.2271 55.9077C15.9288 55.3513 15.7797 54.6778 15.7797 53.8871C15.7797 53.094 15.9288 52.4193 16.2271 51.8629C16.5254 51.3066 16.9314 50.8828 17.4451 50.5916C17.9589 50.2981 18.5389 50.1513 19.1852 50.1513C19.8268 50.1513 20.4044 50.2981 20.9181 50.5916C21.4342 50.8828 21.8414 51.3066 22.1397 51.8629C22.4404 52.4193 22.5907 53.094 22.5907 53.8871ZM21.0318 53.8871C21.0318 53.3733 20.9548 52.9401 20.801 52.5874C20.6494 52.2346 20.4352 51.9671 20.1582 51.7848C19.8812 51.6025 19.5569 51.5114 19.1852 51.5114C18.8135 51.5114 18.4892 51.6025 18.2122 51.7848C17.9352 51.9671 17.7198 52.2346 17.5659 52.5874C17.4144 52.9401 17.3386 53.3733 17.3386 53.8871C17.3386 54.4008 17.4144 54.834 17.5659 55.1868C17.7198 55.5395 17.9352 55.8071 18.2122 55.9893C18.4892 56.1716 18.8135 56.2628 19.1852 56.2628C19.5569 56.2628 19.8812 56.1716 20.1582 55.9893C20.4352 55.8071 20.6494 55.5395 20.801 55.1868C20.9548 54.834 21.0318 54.4008 21.0318 53.8871ZM30.1467 52.7969H28.5913C28.5629 52.5956 28.5049 52.4169 28.4173 52.2607C28.3297 52.102 28.2172 51.9671 28.0799 51.8558C27.9426 51.7446 27.784 51.6593 27.604 51.6001C27.4265 51.541 27.2335 51.5114 27.0252 51.5114C26.6488 51.5114 26.3209 51.6049 26.0415 51.7919C25.7622 51.9766 25.5456 52.2464 25.3917 52.6016C25.2378 52.9543 25.1609 53.3828 25.1609 53.8871C25.1609 54.4055 25.2378 54.8411 25.3917 55.1939C25.5479 55.5466 25.7657 55.813 26.0451 55.9929C26.3245 56.1728 26.6476 56.2628 27.0146 56.2628C27.2205 56.2628 27.4111 56.2356 27.5863 56.1811C27.7638 56.1267 27.9213 56.0473 28.0586 55.9432C28.1959 55.8366 28.3095 55.7076 28.3995 55.5561C28.4918 55.4046 28.5558 55.2318 28.5913 55.0376L30.1467 55.0447C30.1064 55.3786 30.0058 55.7005 29.8448 56.0107C29.6862 56.3184 29.4719 56.5942 29.2021 56.8381C28.9345 57.0795 28.6149 57.2713 28.2433 57.4134C27.8739 57.553 27.4561 57.6229 26.9897 57.6229C26.341 57.6229 25.761 57.4761 25.2496 57.1825C24.7406 56.889 24.3382 56.464 24.0423 55.9077C23.7487 55.3513 23.6019 54.6778 23.6019 53.8871C23.6019 53.094 23.7511 52.4193 24.0494 51.8629C24.3477 51.3066 24.7525 50.8828 25.2638 50.5916C25.7752 50.2981 26.3505 50.1513 26.9897 50.1513C27.4111 50.1513 27.8017 50.2105 28.1616 50.3288C28.5238 50.4472 28.8446 50.62 29.1239 50.8473C29.4033 51.0722 29.6306 51.348 29.8058 51.6747C29.9833 52.0014 30.0969 52.3755 30.1467 52.7969Z" fill="white"/>
</svg>
