<svg width="66" height="60" viewBox="0 0 66 60" fill="none" xmlns="http://www.w3.org/2000/svg">
<path d="M49.5011 2.0332C50.0534 2.0332 50.5011 1.58549 50.5011 1.0332C50.5011 0.480918 50.0534 0.0332032 49.5011 0.0332032V2.0332ZM8.99805 2.0332H49.5011V0.0332032H8.99805V2.0332Z" fill="#CBCBCB"/>
<line x1="9" y1="55.5234" x2="66" y2="55.5234" stroke="#CBCBCB" stroke-width="2"/>
<line x1="10" y1="55.5234" x2="10" y2="1.52344" stroke="#CBCBCB" stroke-width="2"/>
<path d="M66 16.5241C66 15.9719 65.5523 15.5241 65 15.5241C64.4477 15.5241 64 15.9719 64 16.5241H66ZM66 55.5273V16.5241H64V55.5273H66Z" fill="#CBCBCB"/>
<path d="M49.4609 1L64.9923 16.5193" stroke="#CBCBCB" stroke-width="2"/>
<rect y="47.5234" width="37" height="12" rx="2" fill="#757575"/>
<path d="M8.35511 51.5185V50.2507H14.3281V51.5185H12.1016V57.5234H10.5817V51.5185H8.35511ZM16.7536 50.2507L18.2202 52.7294H18.277L19.7507 50.2507H21.4872L19.2678 53.8871L21.5369 57.5234H19.7685L18.277 55.0412H18.2202L16.7287 57.5234H14.9673L17.2436 53.8871L15.0099 50.2507H16.7536ZM22.1832 51.5185V50.2507H28.1562V51.5185H25.9297V57.5234H24.4098V51.5185H22.1832Z" fill="white"/>
</svg>
