<svg width="60" height="60" viewBox="0 0 60 60" fill="none" xmlns="http://www.w3.org/2000/svg">
<rect x="1" y="1" width="58" height="58" rx="29" stroke="#62C3B8" stroke-opacity="0.2" stroke-width="2"/>
<g clip-path="url(#clip0_108_5671)">
<g filter="url(#filter0_d_108_5671)">
<path d="M28.9079 22.9942L22.4889 29.4132C22.0629 29.8392 21.3721 29.8392 20.9461 29.4132C20.52 28.9871 20.52 28.2964 20.9461 27.8703L28.5952 20.2212C29.3703 19.4461 30.627 19.4461 31.4021 20.2212L39.7437 28.5628C40.17 28.9891 40.1697 29.6802 39.7432 30.1062C39.317 30.5317 38.6267 30.5315 38.2009 30.1057L31.0894 22.9942L31.0589 38.7352C31.0587 38.8054 31.0518 38.8755 31.0382 38.9444C30.8068 40.1167 29.1296 40.1181 28.8986 38.9456C28.8847 38.8755 28.8779 38.8042 28.878 38.7328L28.9079 22.9942Z" fill="#62C3B8"/>
</g>
</g>
<defs>
<filter id="filter0_d_108_5671" x="16.627" y="18.6396" width="27.4355" height="28.1846" filterUnits="userSpaceOnUse" color-interpolation-filters="sRGB">
<feFlood flood-opacity="0" result="BackgroundImageFix"/>
<feColorMatrix in="SourceAlpha" type="matrix" values="0 0 0 0 0 0 0 0 0 0 0 0 0 0 0 0 0 0 127 0" result="hardAlpha"/>
<feOffset dy="3"/>
<feGaussianBlur stdDeviation="2"/>
<feComposite in2="hardAlpha" operator="out"/>
<feColorMatrix type="matrix" values="0 0 0 0 0.384314 0 0 0 0 0.764706 0 0 0 0 0.721569 0 0 0 0.7 0"/>
<feBlend mode="normal" in2="BackgroundImageFix" result="effect1_dropShadow_108_5671"/>
<feBlend mode="normal" in="SourceGraphic" in2="effect1_dropShadow_108_5671" result="shape"/>
</filter>
<clipPath id="clip0_108_5671">
<rect width="28" height="28" fill="white" transform="translate(10.2012 30) rotate(-45)"/>
</clipPath>
</defs>
</svg>
