<svg width="21" height="17" viewBox="0 0 21 17" fill="none" xmlns="http://www.w3.org/2000/svg">
<path d="M4.986 16.566V15.09C2.664 14.892 1.008 13.65 0.954 11.49H3.654C3.726 12.318 4.158 12.876 4.986 13.056V9.618C3.132 9.15 0.954 8.628 0.954 5.964C0.954 3.84 2.646 2.454 4.986 2.274V0.815999H6.138V2.274C8.388 2.454 9.9 3.66 10.062 5.802H7.344C7.272 5.1 6.84 4.56 6.138 4.344V7.746C8.01 8.232 10.206 8.718 10.206 11.382C10.206 13.218 8.766 14.928 6.138 15.108V16.566H4.986ZM7.596 11.49C7.596 10.644 6.984 10.23 6.138 9.942V13.092C7.056 12.93 7.596 12.3 7.596 11.49ZM3.582 5.838C3.582 6.684 4.158 7.116 4.986 7.404V4.29C4.158 4.416 3.582 4.92 3.582 5.838Z" fill="#0A1126"/>
<rect x="20" width="0.5" height="16" fill="#858585"/>
</svg>
