<svg width="25" height="24" viewBox="0 0 25 24" fill="none" xmlns="http://www.w3.org/2000/svg">
<path d="M12.5186 2.91003C9.20862 2.91003 6.51862 5.60003 6.51862 8.91003V11.8C6.51862 12.41 6.25862 13.34 5.94862 13.86L4.79862 15.77C4.08862 16.95 4.57862 18.26 5.87862 18.7C10.1886 20.14 14.8386 20.14 19.1486 18.7C20.3586 18.3 20.8886 16.87 20.2286 15.77L19.0786 13.86C18.7786 13.34 18.5186 12.41 18.5186 11.8V8.91003C18.5186 5.61003 15.8186 2.91003 12.5186 2.91003Z" stroke="#1D1F2C" stroke-width="1.5" stroke-miterlimit="10" stroke-linecap="round"/>
<path d="M14.3719 3.19994C14.0619 3.10994 13.7419 3.03994 13.4119 2.99994C12.4519 2.87994 11.5319 2.94994 10.6719 3.19994C10.9619 2.45994 11.6819 1.93994 12.5219 1.93994C13.3619 1.93994 14.0819 2.45994 14.3719 3.19994Z" stroke="#1D1F2C" stroke-width="1.5" stroke-miterlimit="10" stroke-linecap="round" stroke-linejoin="round"/>
<path d="M15.5195 19.0601C15.5195 20.7101 14.1695 22.0601 12.5195 22.0601C11.6995 22.0601 10.9395 21.7201 10.3995 21.1801C9.85953 20.6401 9.51953 19.8801 9.51953 19.0601" stroke="#1D1F2C" stroke-width="1.5" stroke-miterlimit="10"/>
<circle cx="17.5" cy="7" r="5" fill="#F04A4A" stroke="white" stroke-width="2"/>
</svg>
