<svg width="34" height="34" viewBox="0 0 34 34" fill="none" xmlns="http://www.w3.org/2000/svg">
<circle cx="17" cy="17" r="17" fill="#F5F5F5"/>
<path d="M23.75 20V13.4C23.75 12.5599 23.75 12.1399 23.5865 11.819C23.4427 11.5368 23.2132 11.3073 22.931 11.1635C22.6101 11 22.1901 11 21.35 11H12.65C11.8099 11 11.3899 11 11.069 11.1635C10.7868 11.3073 10.5573 11.5368 10.4135 11.819C10.25 12.1399 10.25 12.5599 10.25 13.4V20M11.5 23H22.5C22.965 23 23.1975 23 23.3882 22.9489C23.9059 22.8102 24.3102 22.4059 24.4489 21.8882C24.5 21.6975 24.5 21.465 24.5 21C24.5 20.7675 24.5 20.6513 24.4744 20.5559C24.4051 20.2971 24.2029 20.0949 23.9441 20.0256C23.8487 20 23.7325 20 23.5 20H10.5C10.2675 20 10.1513 20 10.0559 20.0256C9.79707 20.0949 9.59491 20.2971 9.52556 20.5559C9.5 20.6513 9.5 20.7675 9.5 21C9.5 21.465 9.5 21.6975 9.55111 21.8882C9.68981 22.4059 10.0941 22.8102 10.6118 22.9489C10.8025 23 11.035 23 11.5 23Z" stroke="#0A1126" stroke-width="1.5" stroke-linecap="round" stroke-linejoin="round"/>
</svg>
