<svg width="14" height="15" viewBox="0 0 14 15" fill="none" xmlns="http://www.w3.org/2000/svg">
<path d="M1.41174 7.91586C1.3323 7.79007 1.29257 7.72717 1.27034 7.63016C1.25364 7.5573 1.25364 7.44238 1.27034 7.36951C1.29257 7.2725 1.3323 7.20961 1.41174 7.08382C2.06823 6.04433 4.02232 3.4165 7.00024 3.4165C9.97815 3.4165 11.9322 6.04433 12.5887 7.08382C12.6682 7.20961 12.7079 7.2725 12.7301 7.36951C12.7468 7.44238 12.7468 7.5573 12.7301 7.63016C12.7079 7.72717 12.6682 7.79007 12.5887 7.91586C11.9322 8.95535 9.97815 11.5832 7.00024 11.5832C4.02232 11.5832 2.06823 8.95535 1.41174 7.91586Z" stroke="#0A1126" stroke-linecap="round" stroke-linejoin="round"/>
<path d="M7.00024 9.24984C7.96673 9.24984 8.75024 8.46634 8.75024 7.49984C8.75024 6.53334 7.96673 5.74984 7.00024 5.74984C6.03374 5.74984 5.25024 6.53334 5.25024 7.49984C5.25024 8.46634 6.03374 9.24984 7.00024 9.24984Z" stroke="#0A1126" stroke-linecap="round" stroke-linejoin="round"/>
</svg>
