<svg width="108" height="115" viewBox="0 0 108 115" fill="none" xmlns="http://www.w3.org/2000/svg">
<rect x="3" width="100" height="100" rx="25" fill="#166FBF" fill-opacity="0.04"/>
<rect x="3.5" y="0.5" width="99" height="99" rx="24.5" stroke="#166FBF" stroke-opacity="0.04"/>
<g filter="url(#filter0_d_95_363)">
<path d="M36.6853 22.7006C40.0802 22.7034 43.3848 21.6067 46.1044 19.5746L50.7433 16.1084C52.4759 14.8949 54.7827 14.8949 56.5153 16.1084L61.4531 19.6893C64.119 21.6226 67.3249 22.6695 70.6179 22.6822L74.5435 22.6974C78.4329 22.6974 81.5859 25.8504 81.5859 29.7397C81.5859 33.2875 83.1558 36.6535 85.8739 38.9335L86.0426 39.075C86.3845 39.3618 86.582 39.7851 86.582 40.2312V80.0742C86.582 82.8523 84.3299 85.1044 81.5517 85.1044H25.8759C23.098 85.1044 20.8457 82.8523 20.8457 80.0742L20.8482 40.2311C20.8482 39.785 21.0456 39.3618 21.387 39.0751L21.5524 38.9363C24.2713 36.6555 25.8416 33.2886 25.8416 29.7397C25.8416 25.8504 28.9943 22.6974 32.8839 22.6974L36.6853 22.7006Z" fill="#0E4679"/>
</g>
<mask id="mask0_95_363" style="mask-type:alpha" maskUnits="userSpaceOnUse" x="20" y="13" width="67" height="73">
<path d="M40.9102 22.6976L50.8277 14.3779C52.5603 13.1644 54.8671 13.1644 56.5997 14.3779L66.518 22.6976H74.5435C78.4329 22.6976 81.5859 25.8505 81.5859 29.7399V35.3368L86.0426 39.0752C86.3845 39.3619 86.582 39.7852 86.582 40.2314V80.0744C86.582 82.8525 84.3299 85.1046 81.5517 85.1046H25.8759C23.098 85.1046 20.8457 82.8525 20.8457 80.0743L20.8482 40.2313C20.8482 39.7852 21.0456 39.3619 21.387 39.0752L25.8416 35.3384V29.7399C25.8416 25.8505 28.9943 22.6976 32.8839 22.6976H40.9102Z" fill="#EBE9FF"/>
</mask>
<g mask="url(#mask0_95_363)">
<path d="M49.2212 16.4915L23.0794 37.7158C21.6678 38.8619 20.848 40.5834 20.8479 42.4017L20.8457 80.0743C20.8457 82.8524 23.0978 85.1045 25.8759 85.1045H81.5518C84.3299 85.1045 86.5819 82.8524 86.5819 80.0743V42.4089C86.5819 40.5865 85.7585 38.8615 84.3415 37.7155L58.0885 16.4831C55.5018 14.391 51.804 14.3945 49.2212 16.4915Z" fill="#0E4679"/>
<path d="M74.5436 22.6973C78.433 22.6973 81.5859 25.8502 81.5859 29.7396L81.5859 84.0982C81.5859 84.6539 81.1355 85.1043 80.5799 85.1043L26.8476 85.1043C26.292 85.1043 25.8416 84.6539 25.8416 84.0982L25.8416 29.7396C25.8416 25.8502 28.9945 22.6973 32.8839 22.6973L74.5436 22.6973Z" fill="#F9F9FF"/>
<rect x="33.4346" y="46.9189" width="31.7823" height="4.58962" rx="2.29481" fill="#166FBF"/>
<rect x="33.4346" y="31.3076" width="31.4715" height="4.58962" rx="2.29481" fill="#166FBF"/>
<rect x="33.4346" y="39.1133" width="23.866" height="4.58962" rx="2.29481" fill="#166FBF"/>
<path d="M46.1621 62.1683L20.5449 41.4951L20.7227 83.0439L46.1621 62.1683Z" fill="#1561A6"/>
<path d="M61.3967 62.5326L87.3477 41.7939L86.9877 81.3109L61.3967 62.5326Z" fill="#1561A6"/>
<path d="M9.97662 83.847L48.0405 57.1862C51.5055 54.7591 56.1187 54.7591 59.5838 57.1862L105.486 89.3372C106.292 89.9014 105.892 91.1673 104.909 91.1673L12.2853 91.1673C8.35136 91.1673 6.75447 86.1038 9.97662 83.847Z" fill="#166FBF"/>
</g>
<defs>
<filter id="filter0_d_95_363" x="0.0751972" y="2.9803" width="107.277" height="111.447" filterUnits="userSpaceOnUse" color-interpolation-filters="sRGB">
<feFlood flood-opacity="0" result="BackgroundImageFix"/>
<feColorMatrix in="SourceAlpha" type="matrix" values="0 0 0 0 0 0 0 0 0 0 0 0 0 0 0 0 0 0 127 0" result="hardAlpha"/>
<feOffset dy="8.55256"/>
<feGaussianBlur stdDeviation="10.3853"/>
<feColorMatrix type="matrix" values="0 0 0 0 0.290196 0 0 0 0 0.227451 0 0 0 0 1 0 0 0 0.15 0"/>
<feBlend mode="normal" in2="BackgroundImageFix" result="effect1_dropShadow_95_363"/>
<feBlend mode="normal" in="SourceGraphic" in2="effect1_dropShadow_95_363" result="shape"/>
</filter>
</defs>
</svg>
