<svg width="100" height="100" viewBox="0 0 100 100" fill="none" xmlns="http://www.w3.org/2000/svg">
<rect width="100" height="100" rx="25" fill="#166FBF" fill-opacity="0.04"/>
<rect x="0.5" y="0.5" width="99" height="99" rx="24.5" stroke="#166FBF" stroke-opacity="0.04"/>
<path d="M32.75 80C31.1687 80 29.8156 79.441 28.6905 78.3229C27.5635 77.2029 27 75.8571 27 74.2857V45.7143C27 44.1429 27.5635 42.7971 28.6905 41.6771C29.8156 40.559 31.1687 40 32.75 40H35.625V34.2857C35.625 30.3333 37.027 26.9638 39.8311 24.1771C42.6333 21.3924 46.0229 20 50 20C53.9771 20 57.3677 21.3924 60.1717 24.1771C62.9739 26.9638 64.375 30.3333 64.375 34.2857V40H67.25C68.8312 40 70.1854 40.559 71.3124 41.6771C72.4375 42.7971 73 44.1429 73 45.7143V74.2857C73 75.8571 72.4375 77.2029 71.3124 78.3229C70.1854 79.441 68.8312 80 67.25 80H32.75ZM50 65.7143C51.5812 65.7143 52.9354 65.1552 54.0624 64.0371C55.1875 62.9171 55.75 61.5714 55.75 60C55.75 58.4286 55.1875 57.0829 54.0624 55.9629C52.9354 54.8448 51.5812 54.2857 50 54.2857C48.4188 54.2857 47.0656 54.8448 45.9405 55.9629C44.8135 57.0829 44.25 58.4286 44.25 60C44.25 61.5714 44.8135 62.9171 45.9405 64.0371C47.0656 65.1552 48.4188 65.7143 50 65.7143ZM41.375 40H58.625V34.2857C58.625 31.9048 57.7865 29.881 56.1094 28.2143C54.4323 26.5476 52.3958 25.7143 50 25.7143C47.6042 25.7143 45.5677 26.5476 43.8906 28.2143C42.2135 29.881 41.375 31.9048 41.375 34.2857V40Z" fill="#166FBF"/>
</svg>
