<svg width="80" height="80" viewBox="0 0 80 80" fill="none" xmlns="http://www.w3.org/2000/svg">
<rect width="80" height="80" rx="15" fill="#166FBF" fill-opacity="0.03"/>
<rect x="0.5" y="0.5" width="79" height="79" rx="14.5" stroke="#166FBF" stroke-opacity="0.1"/>
<path d="M43.3335 34.9987H39.1668C37.7861 34.9987 36.6668 36.118 36.6668 37.4987C36.6668 38.8794 37.7861 39.9987 39.1668 39.9987H40.8335C42.2142 39.9987 43.3335 41.118 43.3335 42.4987C43.3335 43.8794 42.2142 44.9987 40.8335 44.9987H36.6668M40.0002 33.332V34.9987M40.0002 44.9987V46.6654M50.0002 39.9987H50.0168M30.0002 39.9987H30.0168M23.3335 33.6654L23.3335 46.332C23.3335 48.1989 23.3335 49.1323 23.6968 49.8453C24.0164 50.4725 24.5263 50.9825 25.1535 51.3021C25.8666 51.6654 26.8 51.6654 28.6668 51.6654L51.3335 51.6654C53.2003 51.6654 54.1338 51.6654 54.8468 51.3021C55.474 50.9825 55.9839 50.4725 56.3035 49.8453C56.6668 49.1323 56.6668 48.1989 56.6668 46.332V33.6654C56.6668 31.7985 56.6668 30.8651 56.3035 30.1521C55.9839 29.5249 55.474 29.0149 54.8468 28.6953C54.1338 28.332 53.2003 28.332 51.3335 28.332L28.6668 28.332C26.8 28.332 25.8666 28.332 25.1535 28.6953C24.5263 29.0149 24.0164 29.5249 23.6968 30.1521C23.3335 30.8651 23.3335 31.7985 23.3335 33.6654ZM50.8335 39.9987C50.8335 40.4589 50.4604 40.832 50.0002 40.832C49.5399 40.832 49.1668 40.4589 49.1668 39.9987C49.1668 39.5385 49.5399 39.1654 50.0002 39.1654C50.4604 39.1654 50.8335 39.5385 50.8335 39.9987ZM30.8335 39.9987C30.8335 40.4589 30.4604 40.832 30.0002 40.832C29.5399 40.832 29.1668 40.4589 29.1668 39.9987C29.1668 39.5385 29.5399 39.1654 30.0002 39.1654C30.4604 39.1654 30.8335 39.5385 30.8335 39.9987Z" stroke="#166FBF" stroke-width="2" stroke-linecap="round" stroke-linejoin="round"/>
</svg>
