<svg width="80" height="81" viewBox="0 0 80 81" fill="none" xmlns="http://www.w3.org/2000/svg">
<rect y="0.5" width="80" height="80" rx="15" fill="#166FBF" fill-opacity="0.03"/>
<rect x="0.5" y="1" width="79" height="79" rx="14.5" stroke="#166FBF" stroke-opacity="0.1"/>
<path d="M47.4997 47.1667L55.833 55.5M55.833 47.1667L47.4997 55.5M45.833 25.9846C48.2762 26.9736 49.9997 29.3689 49.9997 32.1667C49.9997 34.9645 48.2762 37.3598 45.833 38.3487M39.9997 45.5H33.333C30.2267 45.5 28.6736 45.5 27.4485 46.0075C25.8149 46.6841 24.5171 47.9819 23.8405 49.6154C23.333 50.8406 23.333 52.3937 23.333 55.5M42.4997 32.1667C42.4997 35.8486 39.5149 38.8333 35.833 38.8333C32.1511 38.8333 29.1663 35.8486 29.1663 32.1667C29.1663 28.4848 32.1511 25.5 35.833 25.5C39.5149 25.5 42.4997 28.4848 42.4997 32.1667Z" stroke="#166FBF" stroke-width="2" stroke-linecap="round" stroke-linejoin="round"/>
</svg>
