<svg width="80" height="80" viewBox="0 0 80 80" fill="none" xmlns="http://www.w3.org/2000/svg">
<rect width="80" height="80" rx="15" fill="#166FBF" fill-opacity="0.03"/>
<rect x="0.5" y="0.5" width="79" height="79" rx="14.5" stroke="#166FBF" stroke-opacity="0.1"/>
<path d="M46.6663 25.7796C49.1359 27.0069 50.833 29.5552 50.833 32.5C50.833 35.4448 49.1359 37.9931 46.6663 39.2204M49.9997 47.944C52.5188 49.0839 54.7872 50.9416 56.6663 53.3333M23.333 53.3333C26.5772 49.2043 30.9816 46.6667 35.833 46.6667C40.6844 46.6667 45.0889 49.2043 48.333 53.3333M43.333 32.5C43.333 36.6421 39.9751 40 35.833 40C31.6909 40 28.333 36.6421 28.333 32.5C28.333 28.3579 31.6909 25 35.833 25C39.9751 25 43.333 28.3579 43.333 32.5Z" stroke="#166FBF" stroke-width="2" stroke-linecap="round" stroke-linejoin="round"/>
</svg>
