<svg width="75" height="72" viewBox="0 0 75 72" fill="none" xmlns="http://www.w3.org/2000/svg">
<g clip-path="url(#clip0_108_7469)">
<path fill-rule="evenodd" clip-rule="evenodd" d="M47.9725 23.963C48.049 24.4137 48.1171 24.8015 48.1542 25.0063C48.3827 26.2517 48.5751 29.414 49.4568 31.5647C50.1289 33.2057 51.203 34.2645 52.8367 33.8831C54.3215 33.5365 55.2457 32.0562 55.6905 30.0097C56.6479 25.6053 55.4934 18.5689 54.5957 16.5332C54.4976 16.3111 54.2389 16.2104 54.0167 16.3085C53.7955 16.4061 53.6948 16.6648 53.7929 16.887C54.6539 18.8407 55.7519 25.5952 54.8329 29.8236C54.4735 31.4762 53.8361 32.7485 52.6366 33.0283C51.4529 33.3049 50.7563 32.4218 50.2691 31.2322C49.4107 29.1393 49.2396 26.0605 49.0177 24.8477C48.8782 24.0875 48.428 21.1731 48.3293 20.9326C48.2059 20.6314 47.9504 20.6396 47.8667 20.6486C47.8019 20.6555 47.4809 20.7107 47.4663 21.1095C47.2554 26.7954 42.9961 35.3746 36.7311 41.1175C30.5212 46.8101 22.3109 49.7135 14.0856 44.0665C13.8855 43.9298 13.612 43.9807 13.4748 44.1798C13.338 44.3798 13.3889 44.6533 13.5889 44.7901C22.2074 50.7067 30.8183 47.7287 37.324 41.7652C42.807 36.7393 46.7726 29.5905 47.9725 23.963Z" fill="#0A1126"/>
<path fill-rule="evenodd" clip-rule="evenodd" d="M14.304 44.6629C15.3355 44.5779 16.3653 44.5262 17.3908 44.361C20.123 43.9215 22.8688 42.8862 25.0848 41.2122C25.2784 41.0652 25.3161 40.7901 25.1706 40.5969C25.0237 40.4033 24.7486 40.3656 24.5554 40.5111C22.4533 42.1011 19.8437 43.0771 17.2515 43.4939C16.0776 43.6823 14.8967 43.7203 13.7153 43.833C13.6564 43.8393 13.1416 43.8726 13.0349 43.9095C12.7859 43.994 12.7367 44.188 12.7254 44.2806C12.7151 44.358 12.7212 44.453 12.7715 44.5592C12.8132 44.646 12.9311 44.7923 13.1303 44.9543C13.7669 45.4754 15.426 46.4776 15.6809 46.6709C18.6035 48.8866 20.9504 51.4386 23.4885 54.0636C23.6576 54.2372 23.936 54.2422 24.1101 54.0741C24.2843 53.906 24.2883 53.6281 24.1202 53.454C21.5501 50.7955 19.1698 48.2146 16.2114 45.9724C16.0367 45.8389 15.028 45.1531 14.304 44.6629Z" fill="#0A1126"/>
</g>
<defs>
<clipPath id="clip0_108_7469">
<rect width="57.0685" height="50.03" fill="white" transform="translate(74.1777 45.3691) rotate(153.036)"/>
</clipPath>
</defs>
</svg>
