<svg width="28" height="27" viewBox="0 0 28 27" fill="none" xmlns="http://www.w3.org/2000/svg">
<path d="M25.1093 6.6768V17.3212C25.1093 20.3879 22.6204 22.8768 19.5537 22.8768H8.44262C7.93151 22.8768 7.44262 22.8101 6.96485 22.6768C6.27596 22.4879 6.05373 21.6101 6.56485 21.099L18.376 9.28791C18.6204 9.04346 18.9871 8.98791 19.3315 9.05457C19.6871 9.12124 20.076 9.02124 20.3537 8.75457L23.2093 5.88791C24.2537 4.84346 25.1093 5.18791 25.1093 6.6768Z" fill="#166FBF"/>
<path d="M16.9312 8.50951L5.29783 20.1428C4.7645 20.6762 3.87561 20.5428 3.52005 19.8762C3.10894 19.1206 2.88672 18.2428 2.88672 17.3206V6.67617C2.88672 5.18728 3.74227 4.84284 4.78672 5.88728L7.65339 8.76506C8.08672 9.18728 8.79783 9.18728 9.23116 8.76506L13.2089 4.77617C13.6423 4.34284 14.3534 4.34284 14.7867 4.77617L16.9423 6.93173C17.3645 7.36506 17.3645 8.07617 16.9312 8.50951Z" fill="#166FBF"/>
</svg>
