<svg width="28" height="27" viewBox="0 0 28 27" fill="none" xmlns="http://www.w3.org/2000/svg">
<path d="M21.5547 11.3438C20.2991 11.3438 19.1769 11.9549 18.4769 12.8882C17.7769 11.9549 16.6547 11.3438 15.3991 11.3438C13.2769 11.3438 11.5547 13.0771 11.5547 15.2104C11.5547 16.0326 11.688 16.7993 11.9102 17.4993C12.9991 20.9549 16.3769 23.0326 18.0436 23.5993C18.2769 23.6771 18.6658 23.6771 18.8991 23.5993C20.5658 23.0326 23.9436 20.966 25.0325 17.4993C25.2658 16.7882 25.388 16.0326 25.388 15.2104C25.3991 13.0771 23.6769 11.3438 21.5547 11.3438Z" fill="#166FBF"/>
<path d="M23.7201 9.59761C23.7201 9.85317 23.4645 10.0198 23.2201 9.95317C21.7201 9.56428 20.0756 9.8865 18.8312 10.7754C18.5867 10.9532 18.2534 10.9532 18.0201 10.7754C17.1423 10.1309 16.0756 9.77539 14.9534 9.77539C12.0867 9.77539 9.75339 12.1198 9.75339 15.0087C9.75339 18.1421 11.2534 20.4865 12.7645 22.0532C12.8423 22.1309 12.7756 22.2643 12.6756 22.2198C9.64227 21.1865 2.88672 16.8976 2.88672 9.59761C2.88672 6.37539 5.47561 3.77539 8.67561 3.77539C10.5756 3.77539 12.2534 4.6865 13.3089 6.09761C14.3756 4.6865 16.0534 3.77539 17.9423 3.77539C21.1312 3.77539 23.7201 6.37539 23.7201 9.59761Z" fill="#166FBF"/>
</svg>
