<svg width="20" height="20" viewBox="0 0 20 20" fill="none" xmlns="http://www.w3.org/2000/svg">
<g clip-path="url(#clip0_1228_1333)">
<path d="M11.7084 5.00033C12.5223 5.15913 13.2704 5.55721 13.8568 6.14361C14.4432 6.73 14.8412 7.47805 15 8.29199M11.7084 1.66699C13.3994 1.85486 14.9764 2.61214 16.1802 3.8145C17.3841 5.01686 18.1434 6.59283 18.3334 8.28366M8.52253 11.5529C7.52121 10.5516 6.73055 9.41937 6.15056 8.21135C6.10067 8.10744 6.07572 8.05549 6.05656 7.98975C5.98846 7.75612 6.03737 7.46923 6.17905 7.27138C6.21892 7.2157 6.26655 7.16807 6.36181 7.07281C6.65315 6.78147 6.79881 6.6358 6.89405 6.48932C7.25322 5.93691 7.25321 5.22476 6.89405 4.67235C6.79881 4.52587 6.65315 4.3802 6.36181 4.08886L6.19942 3.92647C5.75655 3.4836 5.53511 3.26217 5.2973 3.14188C4.82433 2.90266 4.26577 2.90266 3.79281 3.14188C3.55499 3.26217 3.33355 3.4836 2.89069 3.92647L2.75932 4.05783C2.31797 4.49919 2.09729 4.71986 1.92875 5.01989C1.74174 5.35281 1.60727 5.86989 1.60841 6.25174C1.60943 6.59586 1.67618 6.83105 1.80969 7.30142C2.52716 9.82925 3.88089 12.2145 5.87088 14.2045C7.86086 16.1945 10.2462 17.5482 12.774 18.2657C13.2444 18.3992 13.4795 18.466 13.8237 18.467C14.2055 18.4681 14.7226 18.3337 15.0555 18.1467C15.3555 17.9781 15.5762 17.7574 16.0176 17.3161L16.1489 17.1847C16.5918 16.7419 16.8132 16.5204 16.9335 16.2826C17.1728 15.8096 17.1728 15.2511 16.9335 14.7781C16.8132 14.5403 16.5918 14.3189 16.1489 13.876L15.9865 13.7136C15.6952 13.4223 15.5495 13.2766 15.4031 13.1814C14.8506 12.8222 14.1385 12.8222 13.5861 13.1814C13.4396 13.2766 13.2939 13.4223 13.0026 13.7136C12.9073 13.8089 12.8597 13.8565 12.804 13.8964C12.6062 14.038 12.3193 14.087 12.0857 14.0189C12.0199 13.9997 11.968 13.9747 11.8641 13.9249C10.656 13.3449 9.52384 12.5542 8.52253 11.5529Z" stroke="#0A1126" stroke-width="1.5" stroke-linecap="round" stroke-linejoin="round"/>
</g>
<defs>
<clipPath id="clip0_1228_1333">
<rect width="20" height="20" fill="white"/>
</clipPath>
</defs>
</svg>
